<svg xmlns="http://www.w3.org/2000/svg" viewBox="0 0 512 512"><rect width="512" height="512" rx="108" fill="#0d1424"/><rect x="40" y="40" width="432" height="432" rx="96" fill="#1a2d50" stroke="#93c5fd" stroke-width="8"/><rect x="110" y="230" width="292" height="100" rx="18" fill="#2563eb" opacity="0.9"/><path d="M150 230 L175 168 C180 155 192 148 206 148 L306 148 C320 148 332 155 337 168 L362 230Z" fill="#3b82f6"/><rect x="130" y="305" width="60" height="28" rx="14" fill="#1e3a6e"/><rect x="322" y="305" width="60" height="28" rx="14" fill="#1e3a6e"/><circle cx="172" cy="318" r="22" fill="#0f172a" stroke="#93c5fd" stroke-width="5"/><circle cx="172" cy="318" r="10" fill="#334155"/><circle cx="340" cy="318" r="22" fill="#0f172a" stroke="#93c5fd" stroke-width="5"/><circle cx="340" cy="318" r="10" fill="#334155"/><rect x="200" y="162" width="112" height="62" rx="8" fill="#93c5fd" opacity="0.25"/><rect x="120" y="255" width="40" height="22" rx="6" fill="#fde68a" opacity="0.9"/><rect x="352" y="255" width="40" height="22" rx="6" fill="#fca5a5" opacity="0.8"/></svg>
