<svg xmlns="http://www.w3.org/2000/svg" viewBox="0 0 512 512"><rect width="512" height="512" rx="108" fill="#0d2b1a"/><rect x="40" y="40" width="432" height="432" rx="96" fill="#1b4332" stroke="#6ee7b7" stroke-width="8"/><path d="M256 380 C256 380 160 320 160 220 C160 160 200 130 256 140 C312 130 352 160 352 220 C352 320 256 380 256 380Z" fill="#6ee7b7" opacity="0.18"/><path d="M200 310 C200 310 170 260 185 200 C195 160 230 145 256 150" fill="none" stroke="#6ee7b7" stroke-width="12" stroke-linecap="round"/><path d="M256 150 C256 150 282 145 310 185 C330 215 320 270 290 310" fill="none" stroke="#86efac" stroke-width="12" stroke-linecap="round"/><line x1="256" y1="150" x2="256" y2="370" stroke="#4ade80" stroke-width="10" stroke-linecap="round"/><path d="M256 240 C256 240 220 210 195 215" fill="none" stroke="#4ade80" stroke-width="8" stroke-linecap="round"/><path d="M256 280 C256 280 292 255 315 262" fill="none" stroke="#4ade80" stroke-width="8" stroke-linecap="round"/><circle cx="256" cy="150" r="12" fill="#bbf7d0"/></svg>
